<?xml version="1.0" standalone="no"?>
<!DOCTYPE svg PUBLIC "-//W3C//DTD SVG 20010904//EN"
 "http://www.w3.org/TR/2001/REC-SVG-20010904/DTD/svg10.dtd">
<svg version="1.0" xmlns="http://www.w3.org/2000/svg"
 width="700.000000pt" height="529.000000pt" viewBox="0 0 700.000000 529.000000"
 preserveAspectRatio="xMidYMid meet">

<g transform="translate(0.000000,529.000000) scale(0.100000,-0.100000)"
fill="#000000" stroke="none">
<path d="M0 2645 l0 -2645 3500 0 3500 0 0 2645 0 2645 -1735 0 -1735 0 0 -50
c0 -43 3 -52 23 -59 30 -13 61 -24 67 -25 3 -1 20 -16 39 -33 45 -41 34 -56
-27 -38 -26 8 -59 15 -74 15 -27 0 -28 -2 -28 -53 0 -44 4 -58 25 -77 14 -13
25 -26 25 -29 0 -3 -36 -6 -80 -6 -44 0 -80 4 -80 9 0 4 11 17 25 28 23 18 26
27 23 72 -4 60 -14 65 -95 46 -63 -16 -78 -6 -40 24 15 12 27 27 27 34 0 6 7
9 15 6 8 -4 17 1 21 10 4 10 13 14 23 12 29 -9 42 9 45 62 l2 52 -1733 0
-1733 0 0 -2645z m3528 2210 c-3 -3 -9 2 -12 12 -6 14 -5 15 5 6 7 -7 10 -15
7 -18z m40 -70 c-3 -3 -9 2 -12 12 -6 14 -5 15 5 6 7 -7 10 -15 7 -18z m42
-66 c0 -6 -4 -7 -10 -4 -5 3 -10 11 -10 16 0 6 5 7 10 4 6 -3 10 -11 10 -16z
m28 -74 c-3 -3 -9 2 -12 12 -6 14 -5 15 5 6 7 -7 10 -15 7 -18z m29 -77 c-3
-8 -6 -5 -6 6 -1 11 2 17 5 13 3 -3 4 -12 1 -19z m31 -73 c-3 -3 -9 2 -12 12
-6 14 -5 15 5 6 7 -7 10 -15 7 -18z m19 -67 c-3 -8 -6 -5 -6 6 -1 11 2 17 5
13 3 -3 4 -12 1 -19z m20 -80 c-3 -8 -6 -5 -6 6 -1 11 2 17 5 13 3 -3 4 -12 1
-19z m21 -83 c-3 -3 -9 2 -12 12 -6 14 -5 15 5 6 7 -7 10 -15 7 -18z m12 -65
c0 -5 -2 -10 -4 -10 -3 0 -8 5 -11 10 -3 6 -1 10 4 10 6 0 11 -4 11 -10z m-3
-82 c-3 -8 -6 -5 -6 6 -1 11 2 17 5 13 3 -3 4 -12 1 -19z m-680 -24 c-3 -3
-12 -4 -19 -1 -8 3 -5 6 6 6 11 1 17 -2 13 -5z m80 0 c-3 -3 -12 -4 -19 -1 -8
3 -5 6 6 6 11 1 17 -2 13 -5z m-160 -10 c-3 -3 -12 -4 -19 -1 -8 3 -5 6 6 6
11 1 17 -2 13 -5z m313 -4 c0 -5 -2 -10 -4 -10 -3 0 -8 5 -11 10 -3 6 -1 10 4
10 6 0 11 -4 11 -10z m-383 -16 c-3 -3 -12 -4 -19 -1 -8 3 -5 6 6 6 11 1 17
-2 13 -5z m460 0 c-3 -3 -12 -4 -19 -1 -8 3 -5 6 6 6 11 1 17 -2 13 -5z m370
-26 c-3 -8 -6 -5 -6 6 -1 11 2 17 5 13 3 -3 4 -12 1 -19z m-912 2 c-3 -5 -11
-10 -16 -10 -6 0 -7 5 -4 10 3 6 11 10 16 10 6 0 7 -4 4 -10z m-70 -30 c-3 -5
-12 -10 -18 -10 -7 0 -6 4 3 10 19 12 23 12 15 0z m-75 -45 c-7 -9 -15 -13
-19 -10 -3 3 1 10 9 15 21 14 24 12 10 -5z m1057 -7 c-3 -8 -6 -5 -6 6 -1 11
2 17 5 13 3 -3 4 -12 1 -19z m-1112 -38 c-3 -5 -11 -10 -16 -10 -6 0 -7 5 -4
10 3 6 11 10 16 10 6 0 7 -4 4 -10z m1102 -36 c2 -13 1 -15 -4 -4 -3 8 -11 19
-17 23 -7 6 -6 7 4 4 8 -2 16 -12 17 -23z m-1165 -26 c-7 -7 -12 -8 -12 -2 0
6 3 14 7 17 3 4 9 5 12 2 2 -3 -1 -11 -7 -17z m1152 -53 c-4 -8 -8 -15 -10
-15 -2 0 -4 7 -4 15 0 8 4 15 10 15 5 0 7 -7 4 -15z m-1237 -77 c-3 -8 -6 -5
-6 6 -1 11 2 17 5 13 3 -3 4 -12 1 -19z m1216 7 c-3 -9 -8 -14 -10 -11 -3 3
-2 9 2 15 9 16 15 13 8 -4z m202 4 c11 -17 -1 -21 -15 -4 -8 9 -8 15 -2 15 6
0 14 -5 17 -11z m-234 -86 c-12 -20 -14 -14 -5 12 4 9 9 14 11 11 3 -2 0 -13
-6 -23z m-1208 2 c-3 -9 -8 -14 -10 -11 -3 3 -2 9 2 15 9 16 15 13 8 -4z m-16
-77 c-3 -8 -6 -5 -6 6 -1 11 2 17 5 13 3 -3 4 -12 1 -19z m1196 7 c-3 -9 -8
-14 -10 -11 -3 3 -2 9 2 15 9 16 15 13 8 -4z m391 -41 c3 -8 2 -12 -4 -9 -6 3
-10 10 -10 16 0 14 7 11 14 -7z m-1584 -45 c0 -5 -4 -9 -10 -9 -5 0 -10 7 -10
16 0 8 5 12 10 9 6 -3 10 -10 10 -16z m1620 -30 c0 -6 -4 -7 -10 -4 -5 3 -10
11 -10 16 0 6 5 7 10 4 6 -3 10 -11 10 -16z m-519 -22 c-10 -9 -11 -8 -5 6 3
10 9 15 12 12 3 -3 0 -11 -7 -18z m-1104 -29 c-3 -8 -6 -5 -6 6 -1 11 2 17 5
13 3 -3 4 -12 1 -19z m1653 -33 c0 -5 -5 -3 -10 5 -5 8 -10 20 -10 25 0 6 5 3
10 -5 5 -8 10 -19 10 -25z m-580 21 c0 -2 -8 -10 -17 -17 -16 -13 -17 -12 -4
4 13 16 21 21 21 13z m-1040 -69 c0 -5 -4 -5 -10 -2 -5 3 -10 14 -10 23 0 15
2 15 10 2 5 -8 10 -19 10 -23z m1638 -22 c-3 -3 -9 2 -12 12 -6 14 -5 15 5 6
7 -7 10 -15 7 -18z m-1581 -61 c9 4 21 -1 29 -11 8 -11 13 -13 14 -5 0 6 7 12
16 12 8 0 12 -4 9 -10 -3 -6 1 -7 10 -4 12 5 13 10 6 17 -6 6 -11 14 -11 18 0
13 74 3 108 -15 39 -20 39 -45 -1 -64 -15 -7 -27 -18 -27 -23 0 -6 -4 -7 -10
-4 -5 3 -22 -6 -37 -20 -16 -14 -40 -29 -54 -32 -15 -3 -32 -16 -38 -29 -6
-14 -19 -28 -28 -31 -26 -10 -53 -36 -53 -51 0 -10 -7 -12 -22 -8 -13 4 -32 9
-43 10 -11 2 -23 4 -27 5 -5 0 -8 6 -8 12 0 6 8 9 19 6 14 -3 17 0 14 14 -6
21 12 26 20 7 3 -7 6 1 6 18 1 22 7 33 19 37 12 2 22 17 26 37 6 32 7 33 21
14 8 -11 15 -14 15 -6 0 6 8 12 18 12 9 0 23 4 29 8 8 5 -2 8 -23 8 -48 0 -74
31 -45 54 14 11 17 20 11 35 -14 34 -10 42 6 12 10 -19 21 -27 31 -23z m863
37 c0 -5 -7 -12 -16 -15 -14 -5 -15 -4 -4 9 14 17 20 19 20 6z m727 -53 c-3
-8 -6 -5 -6 6 -1 11 2 17 5 13 3 -3 4 -12 1 -19z m-797 -3 c-7 -9 -15 -13 -19
-10 -3 3 1 10 9 15 21 14 24 12 10 -5z m-292 -1 c14 -4 21 -12 18 -20 -3 -8
-2 -13 2 -12 4 1 18 -4 31 -11 31 -17 14 -34 -36 -33 -21 0 -45 -3 -53 -9 -11
-6 -6 -9 17 -9 37 0 64 -33 44 -53 -14 -14 -14 -27 -1 -27 6 0 10 7 10 15 0 8
5 15 11 15 5 0 8 -4 5 -8 -3 -5 1 -9 8 -9 8 0 11 9 8 23 -3 18 1 24 21 29 14
4 31 4 36 0 17 -10 13 -33 -8 -40 -25 -8 -56 -80 -56 -131 0 -30 -4 -41 -15
-40 -9 1 -13 -5 -11 -14 9 -37 7 -72 -5 -77 -8 -3 -11 -9 -8 -14 3 -5 0 -9 -5
-9 -6 0 -11 -10 -11 -21 0 -19 -2 -20 -17 -8 -14 12 -14 11 1 -13 21 -32 15
-68 -8 -49 -9 8 -16 8 -20 2 -4 -5 1 -14 10 -19 13 -7 12 -11 -9 -25 -13 -8
-40 -19 -60 -22 -19 -4 -45 -18 -56 -31 -12 -14 -35 -27 -53 -31 -22 -4 -34
-14 -42 -35 -6 -15 -14 -28 -17 -28 -4 0 -13 -16 -19 -35 -10 -31 -40 -50 -40
-26 0 5 -8 11 -18 13 -19 5 -36 51 -48 124 -5 37 -3 44 25 73 18 18 28 37 24
44 -5 8 -8 8 -11 -1 -3 -11 -32 -18 -32 -8 0 16 14 36 26 36 8 0 14 7 14 15 0
8 -7 15 -16 15 -12 0 -14 5 -9 18 9 19 9 28 7 94 -2 41 -6 49 -30 62 -16 8
-39 12 -50 9 -18 -4 -22 -1 -22 21 0 20 5 26 23 27 l22 0 -22 9 c-13 5 -23 18
-23 29 0 15 10 21 43 26 45 8 62 22 46 41 -12 14 25 44 53 44 10 0 18 6 18 14
0 8 11 17 24 20 13 3 31 9 40 12 10 4 16 1 16 -9 0 -22 28 -29 39 -10 7 14 11
12 25 -13 l17 -29 -5 33 c-4 23 -2 32 8 32 8 0 17 7 20 16 3 9 12 14 19 11 8
-3 20 -1 28 4 16 10 45 11 77 3z m1142 -34 c0 -5 -9 -12 -20 -15 -11 -3 -20
-14 -20 -22 0 -9 -3 -14 -6 -11 -3 3 -2 22 1 42 6 31 10 34 26 25 10 -5 19
-14 19 -19z m-1739 -34 c-7 -13 -10 -29 -7 -35 5 -7 1 -9 -9 -5 -11 5 -14 2
-9 -10 8 -20 -25 -34 -36 -15 -6 9 -2 20 11 32 24 22 24 28 2 20 -16 -6 -16
-4 1 15 11 12 16 22 12 22 -4 0 -1 6 6 14 11 12 15 12 27 1 12 -12 13 -18 2
-39z m-145 -3 c14 -23 3 -61 -12 -41 -12 15 -16 58 -6 58 4 0 12 -8 18 -17z
m1944 -3 c9 -17 8 -20 -10 -20 -13 0 -20 7 -20 20 0 11 4 20 10 20 5 0 14 -9
20 -20z m-370 -6 c0 -8 -5 -12 -10 -9 -6 4 -8 11 -5 16 9 14 15 11 15 -7z
m-660 2 c0 -2 -7 -6 -15 -10 -8 -3 -15 -1 -15 4 0 6 7 10 15 10 8 0 15 -2 15
-4z m600 -28 c0 -5 -4 -8 -10 -8 -5 0 -10 10 -10 23 0 18 2 19 10 7 5 -8 10
-18 10 -22z m480 5 c0 -22 -2 -25 -10 -13 -13 20 -13 40 0 40 6 0 10 -12 10
-27z m-2196 -8 c-4 -8 -9 -15 -13 -15 -4 0 -8 7 -8 15 0 8 6 15 13 15 8 0 11
-6 8 -15z m76 5 c0 -5 -4 -10 -10 -10 -5 0 -10 5 -10 10 0 6 5 10 10 10 6 0
10 -4 10 -10z m1677 -12 c-3 -8 -6 -5 -6 6 -1 11 2 17 5 13 3 -3 4 -12 1 -19z
m-1511 -15 c-10 -10 -19 5 -10 18 6 11 8 11 12 0 2 -7 1 -15 -2 -18z m1411 -7
c-7 -17 -37 -11 -37 6 0 6 7 8 15 4 8 -3 15 0 15 6 0 6 3 9 6 5 4 -3 4 -13 1
-21z m83 4 c0 -5 -5 -10 -11 -10 -5 0 -7 5 -4 10 3 6 8 10 11 10 2 0 4 -4 4
-10z m320 -10 c0 -5 -4 -10 -10 -10 -5 0 -10 5 -10 10 0 6 5 10 10 10 6 0 10
-4 10 -10z m-2041 -31 c10 -29 31 -32 31 -4 0 8 4 16 9 19 5 4 7 -3 4 -14 -3
-13 0 -20 8 -20 10 -1 9 -5 -4 -14 -21 -16 -53 -10 -79 16 -21 21 -23 34 -5
41 22 9 25 7 36 -24z m2285 -19 c3 0 6 7 6 16 0 8 5 12 10 9 6 -4 8 -10 5 -15
-3 -5 -1 -11 4 -15 5 -3 15 3 21 12 8 15 9 13 4 -9 -4 -18 -2 -28 5 -28 6 0
11 11 11 25 0 14 4 25 9 25 17 0 21 -32 10 -76 -7 -25 -9 -48 -5 -51 4 -4 9 2
12 14 4 15 16 22 50 27 24 3 55 1 68 -4 28 -10 64 -3 88 18 14 12 20 12 33 2
8 -7 15 -17 15 -23 0 -12 31 -36 48 -37 6 0 12 6 12 14 0 10 9 13 31 9 21 -3
29 -1 24 6 -3 6 -1 11 5 11 7 0 9 -8 5 -20 -4 -12 -2 -20 5 -20 7 0 9 -9 5
-22 -4 -17 -3 -19 4 -8 5 9 6 33 1 60 -15 77 -15 78 38 82 31 3 53 0 63 -9 9
-8 32 -15 50 -16 52 -4 64 -15 42 -40 -15 -17 -16 -19 -2 -14 14 5 15 0 9 -30
-6 -23 -4 -48 6 -75 18 -53 19 -51 -16 -44 -37 7 -38 -3 -5 -34 14 -13 25 -19
25 -14 0 5 9 -6 20 -24 l21 -34 19 22 c24 28 42 18 27 -15 -7 -14 -15 -25 -19
-25 -5 0 -8 -6 -8 -14 0 -16 -44 24 -102 93 -31 37 -34 46 -23 57 16 16 35 18
35 4 0 -5 4 -10 9 -10 12 0 1 48 -15 61 -8 6 -14 15 -14 20 0 5 -9 18 -19 28
-16 16 -20 17 -25 5 -7 -19 -26 -18 -26 1 0 8 -4 15 -10 15 -5 0 -10 -16 -10
-35 0 -19 4 -35 9 -35 5 0 12 -7 15 -16 5 -13 1 -15 -21 -9 -15 3 -33 14 -40
23 -12 16 -13 15 -11 -3 2 -11 12 -25 23 -31 11 -5 19 -18 17 -27 -2 -9 1 -17
7 -17 5 0 31 -21 57 -47 27 -25 42 -44 32 -40 -33 12 -27 -7 17 -54 28 -30 45
-57 45 -73 0 -19 4 -23 20 -19 15 4 20 0 20 -13 0 -16 -2 -17 -10 -4 -8 12
-10 11 -10 -7 0 -13 -5 -23 -10 -23 -7 0 -7 -6 -2 -17 5 -10 7 -23 5 -30 -2
-6 10 -26 26 -44 17 -18 31 -36 31 -40 0 -5 7 -9 15 -9 8 0 15 -5 15 -11 0 -5
5 -7 12 -3 8 5 9 2 5 -10 -4 -10 -1 -24 9 -33 17 -18 13 -53 -17 -122 -12 -28
-24 -41 -33 -38 -18 7 -36 -12 -36 -38 0 -12 -5 -26 -10 -31 -7 -7 -2 -21 14
-43 25 -34 25 -55 0 -65 -9 -4 -14 1 -14 14 0 11 -9 28 -20 37 -11 10 -20 24
-20 31 0 10 -8 13 -24 10 -18 -4 -26 0 -30 16 -5 19 -7 18 -31 -9 -14 -17 -25
-33 -25 -36 0 -10 28 -19 56 -19 l24 0 -20 -20 -21 -21 20 -26 c46 -57 43
-129 -6 -182 -19 -20 -29 -23 -72 -19 -52 5 -64 -2 -91 -52 -10 -19 -8 -26 19
-54 33 -34 40 -65 16 -67 -8 -1 -19 -2 -25 -3 -5 -1 -10 3 -9 8 0 5 -5 13 -13
17 -11 7 -11 12 0 30 12 18 11 24 -1 37 -14 13 -17 13 -33 -3 -19 -19 -26 -53
-12 -61 19 -12 6 -22 -19 -15 -17 5 -30 16 -33 32 -5 19 -12 23 -33 21 -18 -2
-27 2 -27 12 0 27 -44 86 -60 80 -8 -4 -22 -7 -30 -8 -8 0 -21 -9 -28 -18 -7
-10 -20 -18 -28 -18 -8 0 -13 -4 -9 -9 3 -5 1 -12 -4 -15 -5 -4 -12 4 -14 16
-3 17 -5 15 -6 -8 0 -18 -8 -34 -16 -38 -10 -3 -15 -20 -15 -48 -1 -45 -21
-84 -39 -73 -6 3 -11 12 -11 19 0 7 -13 37 -29 67 -15 30 -32 68 -35 86 -5 22
-12 30 -22 26 -8 -3 -28 10 -48 30 -31 33 -38 35 -94 34 -36 0 -68 5 -76 13
-9 7 -22 10 -30 7 -16 -6 -76 28 -76 43 0 5 -7 10 -15 10 -23 0 -18 -28 10
-56 14 -14 25 -29 25 -34 0 -15 36 -12 49 4 11 13 15 12 30 -3 10 -10 25 -21
32 -23 12 -4 12 -9 -1 -34 -24 -47 -116 -106 -190 -120 -27 -6 -29 -3 -39 34
-6 22 -22 51 -36 64 -14 12 -25 28 -25 34 0 6 -16 32 -35 59 -26 38 -36 45
-40 32 -6 -13 14 -61 57 -137 17 -30 31 -65 30 -72 -1 -4 5 -5 13 -2 10 4 21
-5 32 -25 18 -32 19 -32 76 -25 l58 6 -16 -38 c-20 -48 -27 -56 -102 -129 -60
-57 -63 -63 -63 -107 0 -26 5 -50 10 -53 6 -3 10 -20 10 -36 0 -30 -20 -55
-73 -91 -22 -15 -25 -23 -20 -52 4 -28 1 -36 -16 -45 -11 -7 -21 -18 -21 -25
0 -22 -70 -103 -98 -115 -15 -5 -47 -11 -72 -13 -44 -3 -44 -3 -50 34 -4 20
-14 47 -23 61 -8 13 -19 42 -23 63 -4 21 -15 56 -25 76 -23 45 -23 51 -3 94
21 44 13 94 -21 144 -20 29 -25 47 -23 81 3 42 2 44 -27 47 -16 2 -34 11 -41
19 -7 11 -18 14 -30 9 -10 -4 -50 -11 -89 -16 -65 -8 -72 -7 -107 16 -21 13
-38 31 -38 38 0 8 -12 24 -26 35 -18 14 -27 30 -26 49 0 15 1 49 1 76 1 55 26
104 71 136 16 11 31 34 35 51 4 17 13 33 21 36 8 3 19 14 25 25 8 16 6 24 -15
43 -21 19 -25 30 -20 57 10 57 11 58 58 58 31 0 46 5 50 16 9 24 8 28 -14 52
-17 18 -18 22 -5 22 8 0 15 5 15 10 0 6 6 10 13 10 8 0 30 18 50 40 19 22 43
40 51 40 10 0 16 9 16 21 0 15 -5 19 -15 15 -20 -7 -19 0 5 24 27 27 30 26 30
-15 l0 -34 43 5 c23 3 53 6 66 7 19 1 27 10 33 34 6 23 13 31 23 27 8 -4 15
-2 15 4 0 6 -4 12 -10 14 -19 6 8 31 36 32 15 1 29 7 32 14 3 10 -8 12 -43 10
-44 -3 -49 -1 -57 24 -8 22 -5 34 11 57 26 37 27 51 1 51 -13 0 -20 -7 -20
-19 0 -10 -11 -30 -25 -45 -28 -30 -31 -47 -13 -76 10 -15 10 -22 0 -32 -6 -6
-12 -22 -12 -35 0 -12 -9 -27 -20 -33 -11 -6 -20 -8 -20 -4 0 3 -6 2 -13 -4
-10 -8 -12 -2 -9 28 4 41 -10 59 -33 40 -23 -19 -42 -5 -48 35 -5 33 -2 40 32
73 39 37 86 127 75 143 -3 5 2 9 10 9 9 0 16 4 16 9 0 13 72 54 95 54 46 -1
54 -3 49 -17 -4 -10 7 -16 37 -21 57 -10 104 -37 104 -61 0 -16 -7 -19 -41
-18 l-42 1 17 -31 c19 -33 45 -49 34 -21 -5 14 -2 16 15 10 18 -5 22 -2 22 15
0 14 8 24 21 27 16 5 20 12 17 34 -3 16 -1 29 4 29 4 0 8 -9 8 -20 0 -26 25
-26 43 1 14 20 71 41 110 40 22 0 22 18 0 34 -15 11 -11 12 22 11 22 0 47 -9
57 -18 10 -10 23 -18 28 -18 16 0 12 18 -6 28 -20 11 -33 112 -16 112 6 0 18
12 25 26 13 26 14 25 14 -17 0 -27 10 -66 26 -100 30 -62 33 -79 15 -97 -9 -9
-8 -12 4 -12 19 0 28 20 28 62 0 26 2 29 15 18 19 -16 20 -3 1 15 -9 10 -16
11 -24 3 -7 -7 -17 2 -31 32 -21 43 -19 75 3 45 10 -14 12 -14 13 6 2 28 11
35 25 21 15 -15 38 -16 38 -2 0 6 -6 10 -14 10 -16 0 -29 27 -20 41 3 5 15 9
28 9 34 0 40 12 14 31 l-22 17 34 32 c24 23 35 28 41 18 6 -9 9 -8 14 4 4 10
15 20 25 23 10 3 21 20 24 38 l7 32 19 -22 c10 -13 21 -23 24 -23z m-854 6 c0
-7 -7 -19 -15 -26 -12 -10 -20 -9 -40 4 -35 23 -31 32 15 34 28 1 40 -2 40
-12z m1887 -3 c6 -15 7 -15 15 3 6 16 7 15 5 -6 -1 -16 6 -32 21 -44 17 -13
20 -22 13 -29 -15 -15 -14 -27 3 -21 17 7 27 -19 14 -37 -8 -11 -9 -10 -4 4 4
12 0 17 -13 17 -10 0 -24 7 -31 15 -10 12 -10 15 4 15 23 0 20 13 -9 38 -14
12 -25 28 -25 36 0 8 -6 17 -12 19 -10 4 -10 6 0 6 7 1 16 -7 19 -16z m-3167
-7 c0 -18 -16 -29 -30 -21 -6 4 -5 11 3 20 16 18 27 19 27 1z m67 -5 c14 -22
28 -91 18 -91 -16 0 -45 22 -40 31 4 5 11 7 16 3 16 -10 -3 50 -20 63 -14 11
-14 12 -1 13 8 0 20 -8 27 -19z m1193 -78 c0 -21 -17 -15 -23 8 -8 29 -23 16
-31 -26 -8 -42 -18 -35 -54 35 -28 57 -28 58 6 62 20 3 36 -5 64 -31 20 -20
37 -42 38 -48z m-1510 37 c0 -14 -18 -21 -25 -10 -3 5 -20 10 -37 10 -30 0
-31 1 -13 20 16 18 20 18 46 4 16 -8 29 -19 29 -24z m2127 8 c-3 -7 -5 -2 -5
12 0 14 2 19 5 13 2 -7 2 -19 0 -25z m983 26 c0 -14 -14 -33 -21 -28 -15 9
-10 31 6 31 8 0 15 -1 15 -3z m260 -25 c0 -20 -15 -26 -25 -9 -9 15 3 43 15
35 5 -3 10 -15 10 -26z m-45 10 c11 -17 -1 -21 -15 -4 -8 9 -8 15 -2 15 6 0
14 -5 17 -11z m-3055 -29 c0 -5 -5 -10 -11 -10 -5 0 -7 5 -4 10 3 6 8 10 11
10 2 0 4 -4 4 -10z m3170 -7 c0 -3 -7 -3 -15 1 -8 3 -15 0 -15 -6 0 -6 -3 -9
-6 -5 -11 10 6 26 21 20 8 -3 15 -7 15 -10z m-1454 -4 c3 -6 -5 -21 -18 -33
-56 -48 -82 -129 -54 -171 23 -35 20 -37 -19 -18 -23 11 -34 22 -30 32 2 9 6
38 7 65 2 38 9 55 30 75 70 67 72 68 84 50z m1214 4 c0 -2 -6 -10 -13 -18 -11
-11 -15 -10 -24 4 -8 13 -6 16 13 17 13 1 24 0 24 -3z m-2819 -15 c0 -10 2
-10 5 -1 7 16 34 5 34 -13 0 -9 -12 -14 -35 -14 -22 0 -35 5 -35 13 0 25 29
39 31 15z m2756 -10 c-3 -8 -6 -5 -6 6 -1 11 2 17 5 13 3 -3 4 -12 1 -19z
m-3032 -16 c-21 -15 -35 -74 -23 -95 8 -16 8 -22 -1 -25 -6 -2 -11 -10 -11
-18 0 -18 -11 -18 -35 0 -12 8 -28 11 -44 7 -14 -4 -33 -6 -42 -4 -21 5 -31
40 -13 47 9 3 11 -1 8 -12 -5 -16 -4 -16 9 0 8 10 17 15 20 11 13 -12 6 22 -7
39 -10 13 -15 15 -24 6 -9 -9 -12 -9 -12 0 0 6 12 15 28 18 15 4 36 14 46 23
14 11 17 12 11 2 -6 -11 -3 -13 13 -9 19 5 21 3 16 -18 -3 -13 -2 -24 4 -24 5
0 12 13 15 29 4 17 14 31 24 33 22 5 31 0 18 -10z m2015 3 c0 -8 -4 -15 -10
-15 -5 0 -7 7 -4 15 4 8 8 15 10 15 2 0 4 -7 4 -15z m-1927 -7 c-4 -7 -6 -22
-5 -33 2 -17 1 -17 -7 -5 -16 22 -13 50 5 50 10 0 12 -4 7 -12z m74 1 c14 -14
-10 -42 -38 -44 -23 -2 -24 13 -2 37 19 21 25 22 40 7z m-896 -37 c-7 -2 -18
1 -23 6 -8 8 -4 9 13 5 13 -4 18 -8 10 -11z m785 1 c21 -28 16 -39 -6 -13 -11
13 -20 25 -20 27 0 9 14 1 26 -14z m164 4 c0 -2 -7 -19 -16 -37 -15 -28 -18
-30 -26 -16 -7 13 -5 23 8 37 15 17 34 25 34 16z m56 -32 c-4 -15 -2 -25 4
-25 6 0 8 -6 4 -12 -4 -7 2 -5 12 6 14 13 15 20 7 23 -17 6 -16 23 1 23 7 0
16 -15 19 -34 3 -19 19 -48 36 -65 32 -33 39 -55 20 -67 -6 -3 -9 -15 -6 -25
3 -11 1 -19 -4 -19 -5 0 -9 -7 -9 -16 0 -25 -24 -43 -43 -32 -10 5 -22 6 -27
3 -17 -10 -11 7 6 20 18 13 22 64 6 74 -6 3 -15 18 -21 32 -8 22 -14 25 -40
21 -33 -5 -61 11 -61 34 0 8 9 14 20 14 15 0 20 7 20 25 0 24 22 44 49 45 9 0
11 -7 7 -25z m3052 -12 c-2 -23 2 -38 10 -41 20 -6 3 -22 -24 -22 -13 0 -24
-4 -24 -8 0 -4 -8 -8 -19 -8 -16 0 -17 4 -8 23 6 13 17 23 26 23 13 1 12 3 -3
15 -17 13 -18 15 -3 15 9 0 17 6 17 14 0 12 10 21 28 25 2 1 2 -16 0 -36z
m-3228 -58 c-7 -8 -9 -24 -5 -37 4 -13 4 -20 0 -16 -5 5 -15 -2 -23 -14 -14
-19 -13 -22 11 -40 15 -11 27 -25 27 -32 0 -17 -34 -56 -49 -56 -7 0 -32 -16
-56 -36 -24 -20 -48 -33 -53 -30 -6 3 -16 -2 -23 -11 -12 -15 -12 -16 5 -10
15 6 17 4 12 -17 -3 -14 -2 -28 4 -31 5 -3 10 -15 10 -26 0 -10 6 -19 13 -19
8 0 25 -9 38 -21 13 -12 34 -25 47 -30 20 -8 22 -14 17 -37 -4 -20 -1 -33 9
-41 22 -18 36 -5 36 32 0 24 6 35 23 42 16 7 22 19 23 45 1 19 4 42 7 50 3 8
10 29 15 45 7 23 14 29 33 27 30 -3 64 -41 61 -67 -2 -12 4 -27 11 -34 12 -9
19 -7 35 14 l21 26 10 -38 c6 -21 11 -45 11 -53 0 -8 14 -30 32 -49 24 -25 29
-37 22 -50 -13 -22 -6 -61 12 -61 8 0 14 -10 14 -26 0 -21 -4 -25 -17 -19 -17
7 -40 13 -55 14 -4 1 2 18 14 38 21 35 21 36 3 28 -11 -5 -44 -10 -73 -10 -37
-1 -58 -7 -70 -19 -16 -18 -16 -18 11 -12 25 6 27 4 27 -23 0 -31 19 -45 47
-34 11 4 14 3 9 -5 -4 -7 -14 -12 -22 -12 -8 0 -26 -7 -39 -16 -22 -15 -25
-15 -25 -1 0 23 -56 2 -76 -29 -9 -13 -24 -26 -35 -29 -10 -4 -19 -12 -19 -19
0 -7 -9 -21 -20 -31 -11 -10 -20 -28 -20 -40 0 -13 -10 -27 -25 -35 -14 -7
-25 -17 -25 -22 0 -4 -6 -8 -14 -8 -20 0 -26 -24 -19 -75 7 -52 -14 -65 -23
-15 -4 16 -12 34 -19 40 -18 15 -73 19 -85 5 -5 -6 -22 -10 -37 -8 -45 7 -80
-12 -87 -46 -3 -17 -9 -43 -12 -59 -4 -19 1 -35 16 -55 27 -35 64 -36 86 -2
19 29 60 36 49 8 -3 -10 -9 -30 -12 -45 -5 -24 -2 -27 28 -30 32 -3 34 -5 34
-39 0 -45 21 -72 49 -63 18 6 19 5 8 -9 -12 -14 -17 -13 -52 5 -21 11 -43 31
-48 43 -6 12 -22 25 -37 29 -15 4 -40 16 -55 28 -15 11 -33 17 -39 14 -16 -10
-123 46 -129 68 -3 10 -16 39 -29 63 -24 45 -31 70 -12 43 8 -12 9 -10 4 8 -6
20 9 33 17 13 2 -5 9 -3 15 4 10 11 8 14 -10 13 -12 -1 -27 -6 -34 -11 -18
-13 -44 17 -45 53 -1 16 -5 27 -10 24 -5 -3 -15 -1 -22 6 -12 9 -13 5 -6 -26
11 -47 -3 -32 -20 23 -7 24 -21 45 -30 48 -22 7 -53 105 -44 142 4 15 14 37
24 48 25 29 36 50 22 41 -8 -5 -12 6 -12 35 0 31 3 40 11 32 12 -12 49 -6 49
8 0 5 -7 6 -15 3 -17 -7 -21 11 -5 21 6 3 10 12 10 18 0 8 -3 8 -9 -1 -7 -11
-9 -11 -14 2 -8 19 9 30 31 21 30 -13 76 -16 104 -6 22 8 28 7 28 -5 0 -7 5
-14 11 -14 6 0 8 -9 4 -20 -7 -22 1 -25 25 -10 9 5 15 26 16 52 1 24 5 51 9
61 4 10 3 17 -5 17 -6 0 -8 5 -4 11 4 7 1 10 -7 7 -8 -3 -19 2 -26 11 -11 14
-12 14 -13 -2 0 -10 -5 -15 -11 -12 -6 4 -8 14 -5 22 3 8 3 25 0 38 -7 27 -38
30 -62 7 -17 -15 -32 -7 -32 18 0 13 6 18 24 16 17 -2 23 1 19 10 -3 8 -13 14
-23 14 -12 0 -17 8 -17 25 0 17 5 25 17 25 13 0 16 6 13 24 -5 27 14 46 22 22
17 -55 15 -53 30 -33 9 13 14 14 17 5 3 -7 17 -12 32 -10 24 2 27 0 16 -13 -7
-9 -10 -18 -6 -22 8 -8 83 15 92 28 9 15 -4 23 -18 11 -9 -7 -17 -6 -26 4 -11
12 -10 14 3 14 11 0 15 10 15 35 0 19 -5 35 -11 35 -10 0 20 62 34 68 4 2 7
10 7 18 0 9 -4 12 -10 9 -5 -3 -10 1 -10 9 0 11 7 15 22 12 16 -2 23 -10 23
-27 0 -19 5 -24 24 -24 13 0 29 -8 34 -17 10 -14 13 -13 30 9 l20 25 22 -28
c18 -23 27 -26 55 -21 26 6 30 5 21 -6 -8 -11 -5 -16 14 -25 15 -7 25 -8 25
-2 0 6 -6 10 -12 10 -7 0 -5 5 5 11 25 14 37 51 24 67 -8 10 -7 16 4 23 8 5
10 9 6 9 -5 0 -5 5 -1 11 4 8 9 7 16 -2 7 -11 8 -9 4 4 -3 11 -3 24 1 30 5 7
9 -2 11 -21 2 -18 -2 -40 -8 -47z m3306 59 c-3 -8 -2 -13 2 -10 4 2 16 -2 27
-10 17 -12 17 -14 2 -14 -10 0 -20 -7 -23 -15 -9 -23 -21 -18 -28 10 -6 23 -9
24 -29 14 -20 -11 -21 -11 -8 5 8 9 21 14 29 11 10 -3 12 0 8 10 -3 9 0 15 10
15 11 0 14 -6 10 -16z m-4166 -25 c0 -14 -6 -19 -17 -17 -22 4 -29 28 -8 28
10 0 13 5 9 12 -4 7 -3 8 4 4 7 -4 12 -16 12 -27z m3810 1 c0 -5 -2 -10 -4
-10 -3 0 -8 5 -11 10 -3 6 -1 10 4 10 6 0 11 -4 11 -10z m-3866 -32 c-3 -4 4
-8 15 -8 24 0 33 -11 22 -28 -6 -10 -13 -10 -32 0 -19 10 -23 20 -21 42 3 21
6 26 12 16 5 -8 6 -18 4 -22z m4055 6 c7 5 9 1 5 -8 -3 -9 -10 -16 -16 -16 -5
0 0 -12 11 -26 22 -28 27 -44 12 -44 -13 0 -41 64 -41 92 0 17 3 19 9 9 5 -7
14 -11 20 -7z m-3694 -3 c3 -5 1 -12 -5 -16 -5 -3 -10 1 -10 9 0 18 6 21 15 7z
m185 -12 c0 -11 -4 -18 -10 -14 -5 3 -7 12 -3 20 7 21 13 19 13 -6z m3165 11
c3 -5 -1 -10 -9 -10 -8 0 -18 5 -21 10 -3 6 1 10 9 10 8 0 18 -4 21 -10z m112
-22 c-3 -8 -6 -5 -6 6 -1 11 2 17 5 13 3 -3 4 -12 1 -19z m-2976 -15 c-8 -15
-10 -15 -11 -2 0 17 10 32 18 25 2 -3 -1 -13 -7 -23z m-423 -45 c2 -16 -2 -28
-7 -28 -6 0 -11 5 -11 10 0 6 -9 10 -19 10 -19 0 -31 18 -31 48 0 12 3 13 12
4 13 -13 29 -16 27 -4 -1 4 -1 12 0 17 3 17 25 -28 29 -57z m3594 4 c-7 -2
-12 -25 -12 -54 l0 -50 -29 7 c-17 3 -39 1 -51 -5 -16 -9 -25 -8 -36 1 -13 10
-17 10 -25 -2 -16 -22 0 32 17 59 8 12 21 22 29 22 9 0 15 9 15 21 0 17 5 20
21 16 12 -3 22 0 26 9 3 8 12 13 19 10 8 -3 14 2 15 12 0 10 5 4 11 -12 8 -22
8 -31 0 -34z m-3718 16 c-3 -4 2 -21 11 -38 9 -17 15 -39 13 -48 -2 -11 -12 0
-27 30 -14 31 -20 55 -16 69 6 16 9 18 15 8 5 -7 7 -17 4 -21z m726 1 c0 -6
-4 -7 -10 -4 -5 3 -10 11 -10 16 0 6 5 7 10 4 6 -3 10 -11 10 -16z m-43 -35
c-3 -3 -12 -4 -19 -1 -8 3 -5 6 6 6 11 1 17 -2 13 -5z m-867 -35 c0 -5 -4 -9
-10 -9 -5 0 -10 7 -10 16 0 8 5 12 10 9 6 -3 10 -10 10 -16z m47 -11 c-3 -7
-5 -2 -5 12 0 14 2 19 5 13 2 -7 2 -19 0 -25z m44 18 c5 3 9 -2 9 -10 0 -10
-6 -13 -15 -10 -8 4 -15 14 -14 23 0 10 2 11 6 3 2 -6 9 -10 14 -6z m3919 -26
c6 -22 15 -40 20 -40 6 0 10 -6 10 -14 0 -8 4 -16 9 -18 9 -3 -15 -108 -28
-121 -5 -5 -21 11 -36 37 -22 37 -26 54 -21 84 4 20 9 54 12 75 8 48 20 47 34
-3z m-3668 5 c0 -5 -5 -11 -11 -13 -6 -2 -11 4 -11 13 0 9 5 15 11 13 6 -2 11
-8 11 -13z m768 -6 c0 -4 -7 -12 -15 -19 -8 -7 -15 -10 -15 -7 0 3 -3 12 -6
21 -4 11 0 14 15 13 12 -1 21 -4 21 -8z m-262 -31 c16 -16 15 -29 -2 -22 -8 3
-17 0 -21 -5 -12 -20 -26 -1 -15 20 12 22 21 24 38 7z m115 -15 c-7 -2 -21 -2
-30 0 -10 3 -4 5 12 5 17 0 24 -2 18 -5z m747 -55 c0 -4 -13 -14 -30 -23 -33
-17 -80 -11 -80 10 0 7 -3 21 -7 31 -5 14 -2 16 18 12 13 -3 35 -2 49 2 24 7
50 -10 50 -32z m-1592 -3 c-3 -3 -9 2 -12 12 -6 14 -5 15 5 6 7 -7 10 -15 7
-18z m909 19 c-3 -4 -2 -15 4 -25 11 -22 -3 -26 -20 -6 -8 10 -7 17 1 25 7 7
14 12 17 12 2 0 1 -3 -2 -6z m43 -14 c0 -5 -4 -10 -10 -10 -5 0 -10 5 -10 10
0 6 5 10 10 10 6 0 10 -4 10 -10z m-890 -19 c0 -6 -4 -13 -10 -16 -5 -3 -10
-11 -10 -17 0 -5 9 0 20 13 16 20 19 21 20 7 0 -21 16 -24 23 -5 2 6 4 -1 4
-18 1 -32 -23 -56 -45 -47 -22 8 -42 63 -28 78 13 16 26 18 26 5z m3623 -131
c3 -11 1 -18 -4 -14 -5 3 -9 11 -9 19 0 8 -7 11 -20 8 -11 -3 -20 -1 -20 4 0
31 44 17 53 -17z m-3537 3 c-3 -8 -6 -20 -6 -26 0 -7 -6 -5 -15 4 -19 18 -10
50 11 42 9 -3 13 -12 10 -20z m1579 -55 c-8 -23 22 -51 47 -45 23 6 23 6 3
-10 -14 -10 -16 -17 -7 -20 32 -12 -2 -53 -45 -53 -22 0 -30 49 -11 61 9 6 7
14 -10 32 -24 26 -28 47 -11 64 15 15 41 -9 34 -29z m295 22 c0 -5 -8 -10 -17
-10 -15 0 -16 2 -3 10 19 12 20 12 20 0z m1720 -10 c0 -5 -2 -10 -4 -10 -3 0
-8 5 -11 10 -3 6 -1 10 4 10 6 0 11 -4 11 -10z m-3487 -20 c-3 -11 -9 -17 -14
-14 -14 8 -10 34 5 34 9 0 12 -7 9 -20z m1428 -52 c6 -22 2 -28 -28 -42 -40
-19 -51 -20 -35 -4 7 7 12 20 12 30 0 22 21 48 34 44 6 -1 13 -14 17 -28z
m2115 -115 c-4 -4 -11 -1 -16 7 -16 25 -11 35 7 17 9 -9 13 -20 9 -24z m-9
-122 c-8 -42 -14 -52 -42 -66 -19 -8 -35 -19 -38 -23 -2 -4 -2 -2 -1 5 2 7 -3
10 -12 6 -9 -3 -12 -13 -9 -23 7 -23 -11 -36 -19 -14 -9 24 16 56 60 79 50 25
51 27 47 78 -2 37 -1 40 11 25 10 -14 11 -29 3 -67z m-2447 -45 c0 -2 -7 -9
-15 -16 -13 -11 -14 -10 -9 4 5 14 24 23 24 12z m-59 -79 c-10 -9 -11 -8 -5 6
3 10 9 15 12 12 3 -3 0 -11 -7 -18z m-40 -70 c-10 -9 -11 -8 -5 6 3 10 9 15
12 12 3 -3 0 -11 -7 -18z m-1116 -50 c8 -20 13 -37 11 -37 -6 0 -36 61 -36 73
0 16 8 4 25 -36z m1088 -12 c-3 -9 -8 -14 -10 -11 -3 3 -2 9 2 15 9 16 15 13
8 -4z m2344 -37 c-3 -7 -5 -2 -5 12 0 14 2 19 5 13 2 -7 2 -19 0 -25z m-2910
-47 c10 -6 14 -11 9 -11 -12 0 -96 40 -96 46 0 5 61 -20 87 -35z m534 2 c-8
-15 -10 -15 -11 -2 0 17 10 32 18 25 2 -3 -1 -13 -7 -23z m-441 -33 c0 -5 -11
-10 -25 -10 -14 0 -25 5 -25 10 0 6 11 10 25 10 14 0 25 -4 25 -10z m2836 -40
c1 -16 -3 -27 -7 -24 -11 6 -12 54 -1 54 4 0 7 -13 8 -30z m-2419 -2 c-3 -8
-6 -5 -6 6 -1 11 2 17 5 13 3 -3 4 -12 1 -19z m-20 -80 c-3 -8 -6 -5 -6 6 -1
11 2 17 5 13 3 -3 4 -12 1 -19z m-391 0 c3 -4 24 -8 48 -8 26 0 51 -7 64 -17
53 -44 68 -53 89 -53 29 0 73 -42 73 -68 0 -18 10 -27 33 -31 4 0 20 -7 35
-14 15 -8 41 -17 58 -20 17 -3 47 -16 67 -27 46 -27 47 -52 7 -100 -21 -23
-30 -45 -30 -70 -1 -58 -22 -91 -75 -120 -43 -23 -51 -32 -56 -64 -3 -20 -14
-44 -23 -54 -10 -9 -26 -32 -37 -50 -12 -21 -26 -32 -37 -30 -13 2 -16 -3 -14
-20 4 -30 -14 -52 -44 -52 -17 0 -24 -6 -24 -19 0 -14 -5 -18 -20 -14 -21 6
-29 -20 -10 -32 6 -4 7 -11 4 -17 -4 -6 -10 -5 -16 3 -7 10 -8 8 -5 -9 8 -34
-20 -95 -39 -88 -9 3 -20 6 -25 6 -6 0 2 13 18 29 15 16 31 27 36 24 4 -2 7 1
7 6 0 6 -7 11 -15 11 -8 0 -15 -5 -15 -11 0 -5 -4 -8 -10 -4 -5 3 -7 12 -3 20
9 24 -13 17 -26 -7 -6 -13 -10 -16 -7 -7 2 9 -3 29 -11 45 -17 31 -19 118 -8
256 10 118 1 153 -49 187 -28 20 -53 50 -75 90 -18 34 -36 61 -42 61 -5 0 -9
9 -9 20 0 11 4 20 8 20 5 0 7 12 4 28 -2 20 4 36 23 56 27 29 29 54 10 99 -5
13 -3 16 8 11 8 -3 21 3 28 14 8 10 21 21 29 24 23 8 70 6 76 -4z m381 -80
c-3 -7 -5 -2 -5 12 0 14 2 19 5 13 2 -7 2 -19 0 -25z m1858 22 c3 -5 -1 -10
-9 -10 -9 0 -16 5 -16 10 0 6 4 10 9 10 6 0 13 -4 16 -10z m549 -28 c2 -4 1
-14 -5 -22 -5 -8 -9 -10 -9 -5 0 6 -5 3 -10 -5 -8 -12 -10 -11 -10 6 0 30 21
46 34 26z m-2417 -74 c-3 -7 -5 -2 -5 12 0 14 2 19 5 13 2 -7 2 -19 0 -25z
m2369 -10 c-9 -12 -16 -19 -16 -15 0 11 24 47 28 42 2 -2 -3 -14 -12 -27z
m-160 -54 c-4 -9 -9 -15 -11 -12 -3 3 -3 13 1 22 4 9 9 15 11 12 3 -3 3 -13
-1 -22z m499 -3 c-3 -6 -11 -11 -17 -11 -6 0 -6 6 2 15 14 17 26 13 15 -4z
m-1342 -238 c-27 -78 -33 -88 -54 -88 -26 0 -25 -5 -16 100 1 21 10 33 29 43
16 7 33 22 39 34 8 14 14 17 22 9 7 -7 2 -35 -20 -98z m1427 23 c0 -11 -19
-15 -25 -6 -3 5 1 10 9 10 9 0 16 -2 16 -4z m-150 -16 c0 -5 -7 -10 -15 -10
-8 0 -15 5 -15 10 0 6 7 10 15 10 8 0 15 -4 15 -10z m75 0 c3 -5 1 -10 -4 -10
-6 0 -11 5 -11 10 0 6 2 10 4 10 3 0 8 -4 11 -10z m-263 -75 c-2 -16 -10 -35
-19 -42 -14 -11 -13 -16 6 -48 25 -43 26 -46 6 -39 -8 4 -15 11 -15 18 0 6
-12 24 -26 40 -21 22 -29 25 -35 14 -7 -11 -11 -10 -19 2 -7 11 -10 5 -10 -25
0 -28 -3 -35 -9 -25 -10 17 1 96 16 111 12 12 53 -17 53 -37 0 -9 5 -12 11 -8
7 4 9 21 6 41 -5 31 -4 34 16 31 18 -2 21 -9 19 -33z m345 -97 c-3 -8 -6 -5
-6 6 -1 11 2 17 5 13 3 -3 4 -12 1 -19z m84 -5 c-12 -20 -14 -14 -5 12 4 9 9
14 11 11 3 -2 0 -13 -6 -23z m-523 -49 c5 3 12 -1 16 -9 3 -9 0 -15 -9 -15
-21 0 -30 -21 -14 -32 12 -8 11 -9 -1 -5 -10 2 -16 18 -17 43 -2 25 1 34 6 25
5 -7 13 -11 19 -7z m72 -34 c0 -13 -11 -13 -30 0 -12 8 -11 10 8 10 12 0 22
-4 22 -10z m-2751 -292 c14 -19 5 -23 -18 -9 -7 5 -10 14 -6 21 4 6 8 10 9 8
1 -2 8 -11 15 -20z m-39 2 c0 -5 -4 -10 -10 -10 -5 0 -10 5 -10 10 0 6 5 10
10 10 6 0 10 -4 10 -10z"/>
<path d="M2446 3185 c4 -8 8 -15 10 -15 2 0 4 7 4 15 0 8 -4 15 -10 15 -5 0
-7 -7 -4 -15z"/>
<path d="M4408 2988 c-19 -19 -24 -38 -10 -38 4 0 17 11 30 24 15 17 18 25 10
28 -7 3 -21 -4 -30 -14z"/>
<path d="M4960 2980 c-9 -6 -10 -10 -3 -10 6 0 15 5 18 10 8 12 4 12 -15 0z"/>
<path d="M4714 2969 c-3 -6 -2 -15 3 -20 5 -5 9 -1 9 11 0 23 -2 24 -12 9z"/>
<path d="M4251 2804 c0 -11 3 -14 6 -6 3 7 2 16 -1 19 -3 4 -6 -2 -5 -13z"/>
<path d="M5030 2666 c0 -9 5 -16 10 -16 6 0 10 4 10 9 0 6 -4 13 -10 16 -5 3
-10 -1 -10 -9z"/>
<path d="M5050 2630 c0 -5 7 -10 15 -10 8 0 15 5 15 10 0 6 -7 10 -15 10 -8 0
-15 -4 -15 -10z"/>
<path d="M3742 2478 c2 -6 10 -14 16 -16 7 -2 10 2 6 12 -7 18 -28 22 -22 4z"/>
<path d="M3690 2461 c0 -5 7 -14 15 -21 13 -10 15 -9 15 9 0 12 -6 21 -15 21
-8 0 -15 -4 -15 -9z"/>
<path d="M4758 2364 c-15 -43 -15 -45 2 -29 21 19 30 48 21 63 -4 6 -14 -9
-23 -34z"/>
<path d="M4340 2164 c0 -8 5 -12 10 -9 6 3 10 10 10 16 0 5 -4 9 -10 9 -5 0
-10 -7 -10 -16z"/>
<path d="M3983 2149 c-22 -23 -20 -36 14 -79 6 -8 13 -31 15 -50 2 -27 9 -37
31 -44 44 -16 52 3 27 60 -12 27 -30 57 -38 67 -16 17 -15 20 2 32 10 8 15 18
11 24 -10 18 -39 13 -62 -10z"/>
<path d="M3805 2150 c-3 -5 -3 -14 0 -20 10 -16 -25 -12 -41 5 -9 8 -20 15
-25 15 -12 0 -41 -68 -36 -83 2 -8 37 -12 95 -13 80 -2 92 0 92 15 0 9 -14 25
-31 35 -22 13 -29 24 -26 37 5 20 -17 27 -28 9z"/>
<path d="M4130 2134 c0 -9 5 -14 12 -12 18 6 21 28 4 28 -9 0 -16 -7 -16 -16z"/>
<path d="M3485 2120 c-7 -12 25 -59 41 -60 26 0 33 -25 17 -58 -16 -32 -27
-39 -37 -23 -3 5 3 11 14 14 30 8 24 25 -14 48 -19 11 -42 31 -51 45 -15 24
-18 25 -40 10 -13 -9 -31 -13 -39 -10 -10 4 -18 -1 -23 -12 -4 -11 -15 -25
-25 -32 -10 -7 -18 -21 -18 -31 0 -21 -17 -37 -44 -42 -11 -2 -21 -10 -24 -16
-5 -16 41 -17 69 -2 11 5 49 13 84 16 l65 6 0 -32 c0 -25 5 -32 28 -37 15 -4
34 -12 42 -18 8 -6 25 -17 38 -24 20 -11 23 -10 32 13 11 28 21 30 52 14 30
-16 138 -22 154 -8 8 6 17 29 20 50 4 22 10 39 15 39 5 0 9 5 9 11 0 7 -7 8
-17 4 -40 -17 -105 -24 -123 -15 -10 5 -21 23 -25 40 -7 30 -19 37 -42 22 -7
-5 -9 -13 -3 -21 9 -16 3 -41 -11 -41 -5 0 -20 22 -33 48 -14 27 -36 56 -49
65 -13 8 -31 23 -40 31 -10 10 -18 12 -22 6z m-43 -75 c3 -14 1 -28 -3 -31 -5
-3 -9 9 -9 25 0 38 6 40 12 6z"/>
<path d="M4890 1935 c0 -8 4 -15 10 -15 5 0 7 7 4 15 -4 8 -8 15 -10 15 -2 0
-4 -7 -4 -15z"/>
<path d="M4893 1821 c1 -12 7 -21 15 -21 16 0 12 32 -5 37 -7 3 -11 -4 -10
-16z"/>
<path d="M4985 1800 c3 -5 8 -10 11 -10 2 0 4 5 4 10 0 6 -5 10 -11 10 -5 0
-7 -4 -4 -10z"/>
<path d="M4905 1780 c-3 -5 1 -10 9 -10 9 0 16 5 16 10 0 6 -4 10 -9 10 -6 0
-13 -4 -16 -10z"/>
<path d="M4887 1636 c-4 -10 -3 -15 3 -11 6 3 10 -2 11 -12 0 -10 3 -13 5 -6
3 7 1 20 -4 29 -8 15 -9 15 -15 0z"/>
<path d="M3790 1370 c0 -24 15 -27 24 -4 9 22 8 24 -9 24 -8 0 -15 -9 -15 -20z"/>
<path d="M3751 1304 c0 -11 3 -14 6 -6 3 7 2 16 -1 19 -3 4 -6 -2 -5 -13z"/>
<path d="M3822 1210 c0 -14 2 -19 5 -12 2 6 2 18 0 25 -3 6 -5 1 -5 -13z"/>
<path d="M2480 2718 c-10 -21 -10 -21 3 -6 8 10 17 15 20 11 4 -3 7 -1 7 5 0
20 -19 13 -30 -10z"/>
<path d="M1950 2639 c0 -5 5 -7 10 -4 6 3 10 8 10 11 0 2 -4 4 -10 4 -5 0 -10
-5 -10 -11z"/>
<path d="M2020 2600 c0 -5 5 -10 10 -10 6 0 10 5 10 10 0 6 -4 10 -10 10 -5 0
-10 -4 -10 -10z"/>
<path d="M1847 2530 c7 -27 30 -37 46 -20 10 10 7 12 -11 7 -17 -4 -22 -1 -20
10 2 9 -2 18 -9 20 -7 3 -9 -3 -6 -17z"/>
<path d="M2010 2511 c0 -5 7 -11 14 -14 10 -4 13 -1 9 9 -6 15 -23 19 -23 5z"/>
<path d="M1947 2493 c-2 -5 -1 -21 2 -37 6 -27 7 -28 20 -12 12 14 12 19 2 26
-8 4 -10 13 -7 19 4 6 3 11 -3 11 -5 0 -12 -3 -14 -7z"/>
<path d="M1815 2470 c-3 -5 -1 -10 5 -10 18 0 49 -43 50 -67 0 -13 5 -23 11
-23 6 0 9 6 6 13 -2 6 0 22 4 35 6 14 5 21 0 17 -5 -3 -11 5 -13 17 -3 23 -51
37 -63 18z"/>
<path d="M1898 2463 c7 -3 16 -2 19 1 4 3 -2 6 -13 5 -11 0 -14 -3 -6 -6z"/>
<path d="M1950 2343 c0 -21 3 -24 10 -13 8 12 10 12 16 -3 9 -25 26 -21 22 6
-2 12 -9 21 -16 20 -6 -2 -12 2 -12 7 0 6 -4 10 -10 10 -5 0 -10 -12 -10 -27z"/>
<path d="M1658 2243 c6 -2 12 -14 12 -24 0 -11 5 -17 10 -14 6 3 10 15 10 26
0 13 -7 19 -22 18 -13 0 -17 -3 -10 -6z"/>
<path d="M2068 2216 c-24 -18 -23 -29 1 -21 11 3 22 1 26 -5 9 -15 45 -12 45
3 0 34 -41 47 -72 23z"/>
<path d="M2146 2172 c-5 -9 3 -52 11 -52 6 0 33 27 33 34 0 10 -39 26 -44 18z"/>
<path d="M2090 2151 c-13 -25 -13 -64 0 -56 6 3 10 13 10 22 0 9 7 25 17 35
15 16 15 18 0 18 -9 0 -21 -9 -27 -19z"/>
<path d="M2215 2120 c-19 -8 -19 -9 3 -9 12 -1 22 4 22 9 0 6 -1 10 -2 9 -2 0
-12 -4 -23 -9z"/>
<path d="M2150 2090 c-13 -8 -13 -10 2 -10 9 0 20 5 23 10 8 13 -5 13 -25 0z"/>
<path d="M1764 1925 c21 -16 32 -13 21 4 -3 6 -14 11 -23 11 -15 -1 -15 -2 2
-15z"/>
<path d="M1828 1913 c-21 -5 -24 -23 -4 -23 8 0 16 7 20 15 3 8 4 14 3 14 -1
-1 -10 -3 -19 -6z"/>
<path d="M1714 1895 c26 -20 42 -19 22 0 -8 8 -21 15 -28 15 -8 -1 -6 -6 6
-15z"/>
<path d="M1760 1875 c0 -9 6 -12 15 -9 8 4 12 10 9 15 -8 14 -24 10 -24 -6z"/>
<path d="M1780 1769 c0 -18 2 -19 15 -9 8 7 15 16 15 21 0 5 -7 9 -15 9 -9 0
-15 -9 -15 -21z"/>
<path d="M5525 2820 c3 -5 8 -10 11 -10 2 0 4 5 4 10 0 6 -5 10 -11 10 -5 0
-7 -4 -4 -10z"/>
<path d="M1610 2491 c0 -5 7 -12 16 -15 14 -5 15 -4 4 9 -14 17 -20 19 -20 6z"/>
</g>
</svg>
