<?xml version="1.0" standalone="no"?>
<!DOCTYPE svg PUBLIC "-//W3C//DTD SVG 20010904//EN"
 "http://www.w3.org/TR/2001/REC-SVG-20010904/DTD/svg10.dtd">
<svg version="1.0" xmlns="http://www.w3.org/2000/svg"
 width="748.000000pt" height="529.000000pt" viewBox="0 0 748.000000 529.000000"
 preserveAspectRatio="xMidYMid meet">

<g transform="translate(0.000000,529.000000) scale(0.100000,-0.100000)"
fill="#000000" stroke="none">
<path d="M2946 4857 c-16 -28 -187 -324 -379 -657 -192 -333 -364 -632 -382
-665 -18 -33 -192 -337 -388 -675 l-355 -615 766 -5 767 -5 72 125 c39 69 211
366 381 660 263 455 307 536 293 544 -14 9 -13 11 5 15 20 6 14 18 -75 172
-53 92 -224 390 -381 662 -157 273 -287 496 -290 497 -3 0 -18 -24 -34 -53z
m156 -1284 c-160 -2 -424 -2 -585 0 -160 1 -29 2 293 2 322 0 453 -1 292 -2z
m558 -3 c-8 -5 -54 -49 -103 -97 -62 -62 -90 -84 -95 -75 -5 7 -17 47 -27 90
-10 42 -23 80 -29 84 -6 4 52 8 129 8 92 0 135 -4 125 -10z"/>
<path d="M4346 4583 c-578 -1000 -586 -1014 -571 -1037 7 -12 156 -268 330
-571 174 -302 344 -596 377 -653 l61 -103 17 28 c9 15 63 109 120 208 96 169
156 272 323 560 88 151 131 226 195 340 l51 91 -14 54 c-8 30 -15 58 -15 62 0
4 22 8 49 10 l49 3 -384 665 c-211 366 -387 666 -391 667 -5 2 -93 -144 -197
-324z"/>
<path d="M3497 2698 l-267 -463 270 -3 c148 -1 391 -1 539 0 l268 3 -266 462
c-146 254 -269 462 -272 463 -3 0 -126 -208 -272 -462z"/>
<path d="M5570 1643 l0 -217 -37 36 c-97 94 -267 64 -339 -58 -33 -56 -44
-168 -24 -239 27 -96 121 -165 225 -165 64 0 98 13 143 54 l32 30 0 -37 0 -37
80 0 80 0 0 425 0 425 -80 0 -80 0 0 -217z m-55 -282 c36 -21 59 -80 50 -130
-4 -20 -21 -49 -40 -68 -77 -77 -195 -19 -195 95 0 51 35 103 80 119 38 13 60
10 105 -16z"/>
<path d="M6240 1646 l0 -213 -35 33 c-84 79 -230 65 -313 -30 -76 -86 -81
-250 -11 -346 75 -104 263 -122 336 -32 l23 27 0 -37 c0 -43 4 -44 101 -40
l69 4 0 424 0 424 -85 0 -85 0 0 -214z m-50 -285 c33 -24 50 -58 50 -104 0
-76 -48 -127 -119 -127 -125 0 -162 189 -47 241 45 20 77 17 116 -10z"/>
<path d="M570 1391 l0 -381 90 0 90 0 0 131 0 130 32 -3 c30 -3 39 -14 112
-130 l79 -128 108 0 108 0 -95 137 c-51 75 -94 140 -94 144 0 3 19 18 43 33
78 50 114 138 97 243 -13 77 -53 131 -124 168 -59 30 -60 30 -253 33 l-193 4
0 -381z m338 205 c32 -17 45 -43 44 -89 -2 -65 -61 -102 -152 -95 l-45 3 -3
89 c-2 49 0 96 3 104 7 19 108 11 153 -12z"/>
<path d="M3850 1389 l0 -380 213 3 214 3 58 30 c46 23 64 40 82 74 51 96 19
211 -73 266 l-51 31 42 37 c80 69 83 180 6 250 -60 55 -120 67 -320 67 l-171
0 0 -381z m335 211 c27 -26 31 -50 13 -83 -19 -37 -41 -46 -105 -47 l-63 0 0
81 0 81 65 -4 c50 -3 70 -9 90 -28z m-2 -271 c47 -13 69 -46 65 -95 -5 -58
-49 -84 -144 -84 l-74 0 0 95 0 95 58 0 c31 0 74 -5 95 -11z"/>
<path d="M2570 1595 l0 -85 -45 0 -45 0 0 -70 0 -70 45 0 45 0 0 -179 0 -179
53 -4 c105 -6 97 -22 97 183 l0 179 45 0 45 0 0 70 0 70 -45 0 -45 0 0 85 0
85 -75 0 -75 0 0 -85z"/>
<path d="M1428 1507 c-195 -56 -262 -290 -122 -431 58 -57 99 -71 214 -71 89
0 111 3 145 22 91 49 138 127 138 233 0 110 -55 193 -157 235 -53 22 -160 28
-218 12z m164 -149 c57 -40 59 -146 2 -199 -20 -19 -36 -24 -76 -24 -43 0 -53
4 -79 32 -34 39 -44 71 -35 117 17 92 110 129 188 74z"/>
<path d="M3055 1507 c-144 -37 -221 -169 -185 -318 11 -44 24 -64 69 -109 36
-36 70 -60 97 -68 63 -18 182 -15 230 7 39 18 118 97 109 111 -2 3 -31 15 -64
25 l-60 18 -31 -27 c-58 -49 -159 -26 -195 44 l-16 30 192 0 191 0 -4 69 c-3
54 -10 78 -33 116 -56 90 -181 132 -300 102z m130 -121 c29 -12 55 -41 55 -60
0 -3 -49 -6 -110 -6 -60 0 -110 3 -110 8 0 20 34 53 63 61 46 13 63 13 102 -3z"/>
<path d="M1910 1318 c0 -169 3 -198 20 -235 26 -59 69 -83 148 -83 68 0 92 8
135 48 l27 26 0 -32 0 -32 85 0 85 0 -2 248 -3 247 -82 3 -83 3 0 -173 c-1
-181 -3 -193 -47 -216 -34 -18 -62 -14 -88 13 -25 24 -25 27 -25 200 l0 175
-85 0 -85 0 0 -192z"/>
<path d="M4560 1318 c0 -169 3 -198 20 -235 26 -59 69 -83 148 -83 68 0 92 8
135 48 l27 26 0 -32 0 -32 79 0 c63 0 80 3 85 16 8 20 8 448 0 468 -5 13 -22
16 -85 16 l-79 0 0 -165 c0 -175 -6 -206 -47 -224 -37 -17 -62 -13 -88 14 -25
24 -25 27 -25 200 l0 175 -85 0 -85 0 0 -192z"/>
<path d="M6479 1468 c10 -24 49 -106 86 -183 37 -77 78 -163 90 -190 l23 -51
-59 -134 -58 -135 76 -3 c42 -2 80 1 84 5 6 6 255 560 314 701 l14 32 -84 0
-83 0 -58 -145 c-32 -80 -61 -142 -65 -138 -4 5 -32 69 -62 143 l-54 135 -91
3 -92 3 19 -43z"/>
<path d="M6430 360 c0 -90 3 -160 6 -157 8 7 6 308 -1 315 -3 3 -5 -68 -5
-158z"/>
<path d="M6744 360 c0 -91 2 -128 3 -82 2 45 2 119 0 165 -1 45 -3 8 -3 -83z"/>
<path d="M3124 355 c0 -88 2 -123 3 -77 2 46 2 118 0 160 -1 42 -3 5 -3 -83z"/>
<path d="M3824 355 c0 -88 2 -123 3 -77 2 46 2 118 0 160 -1 42 -3 5 -3 -83z"/>
<path d="M5409 428 c-3 -147 -5 -165 -24 -194 l-18 -29 21 18 c20 18 20 18 25
-5 2 -13 5 48 6 135 0 86 -1 157 -4 157 -3 0 -6 -37 -6 -82z"/>
<path d="M350 478 c-62 -17 -100 -72 -100 -146 0 -68 66 -132 134 -132 36 0
103 26 93 37 -3 3 -16 -2 -29 -11 -12 -9 -38 -16 -58 -16 -117 0 -170 158 -79
234 37 31 111 36 148 9 14 -9 21 -11 16 -4 -7 13 -67 42 -82 40 -4 0 -24 -5
-43 -11z"/>
<path d="M2282 338 c1 -79 3 -115 5 -80 l4 62 38 0 c55 0 91 31 91 79 0 53
-32 81 -93 81 l-47 0 2 -142z m108 112 c47 -47 10 -120 -60 -120 l-40 0 0 70
0 70 40 0 c27 0 47 -7 60 -20z"/>
<path d="M3622 338 c1 -79 3 -115 5 -80 l4 62 38 0 c55 0 91 31 91 79 0 53
-32 81 -93 81 l-47 0 2 -142z m108 112 c47 -47 11 -120 -60 -120 l-40 0 0 70
0 70 40 0 c27 0 47 -7 60 -20z"/>
<path d="M5612 338 c1 -79 3 -115 5 -80 l4 62 38 0 c55 0 91 31 91 79 0 53
-32 81 -93 81 l-47 0 2 -142z m108 112 c47 -47 11 -120 -60 -120 l-40 0 0 70
0 70 40 0 c27 0 47 -7 60 -20z"/>
<path d="M1571 423 c0 -22 -6 -33 -16 -33 -8 0 -15 -4 -15 -10 0 -5 7 -10 15
-10 12 0 15 -17 17 -87 l2 -88 3 85 c3 51 9 87 16 92 9 6 9 10 0 16 -6 4 -13
21 -16 37 l-4 30 -2 -32z"/>
<path d="M6911 423 c0 -22 -6 -33 -16 -33 -8 0 -15 -4 -15 -10 0 -5 7 -10 15
-10 12 0 15 -17 17 -87 l2 -88 3 85 c3 51 9 87 16 92 9 6 9 10 0 16 -6 4 -13
21 -16 37 l-4 30 -2 -32z"/>
<path d="M561 364 c-26 -22 -31 -33 -31 -70 0 -58 35 -94 90 -94 55 0 90 36
90 94 0 37 -5 48 -31 70 -17 15 -43 26 -59 26 -16 0 -42 -11 -59 -26z m122
-15 c43 -53 6 -139 -60 -139 -75 0 -111 93 -57 147 21 21 32 24 62 19 20 -3
45 -15 55 -27z"/>
<path d="M803 375 c-16 -12 -22 -12 -26 -2 -3 6 -5 -31 -5 -83 l1 -95 6 78 c5
62 10 82 25 93 51 37 78 8 87 -95 l7 -76 -2 83 c-1 70 -4 86 -21 98 -24 18
-45 18 -72 -1z"/>
<path d="M1002 374 c-12 -8 -22 -10 -22 -5 0 6 -4 11 -10 11 -6 0 -9 -37 -9
-90 0 -50 4 -88 9 -85 4 2 8 35 8 72 0 57 4 70 22 85 26 21 53 23 68 5 6 -7
13 -49 15 -92 l3 -80 2 87 c2 77 0 88 -17 98 -27 14 -43 13 -69 -6z"/>
<path d="M1195 378 c-33 -19 -44 -41 -45 -86 0 -55 33 -92 82 -92 35 0 78 23
78 42 0 6 -10 2 -23 -10 -33 -31 -80 -29 -106 4 -37 47 -29 54 59 54 l80 0 -6
28 c-13 56 -72 87 -119 60z m85 -18 c11 -11 20 -29 20 -40 0 -18 -7 -20 -70
-20 -79 0 -89 12 -45 55 29 30 68 32 95 5z"/>
<path d="M1404 380 c-31 -12 -54 -49 -54 -88 0 -70 93 -119 146 -76 18 15 18
15 -3 5 -59 -29 -120 -1 -130 61 -5 32 -1 41 26 69 32 32 51 34 106 15 13 -5
11 -2 -5 8 -28 17 -55 19 -86 6z"/>
<path d="M1767 370 c-24 -19 -26 -19 -30 -3 -3 10 -4 -25 -4 -77 l0 -95 6 73
c5 61 10 77 30 93 27 22 56 25 68 7 4 -7 11 -49 14 -93 l6 -80 1 81 c2 67 -1
84 -16 97 -24 22 -44 21 -75 -3z"/>
<path d="M1960 377 c-31 -16 -50 -70 -39 -112 17 -58 81 -84 125 -49 18 15 18
15 -3 5 -62 -30 -113 2 -113 72 0 49 18 72 66 87 21 6 23 8 9 9 -11 0 -31 -5
-45 -12z"/>
<path d="M2479 361 c-33 -33 -38 -75 -14 -120 16 -32 33 -41 75 -41 26 0 89
39 64 40 -6 0 -17 -7 -24 -15 -21 -25 -76 -19 -99 11 -37 47 -29 54 60 54 l81
0 -6 28 c-9 35 -50 72 -82 72 -15 0 -38 -12 -55 -29z m91 9 c10 -5 23 -23 28
-40 l11 -30 -75 0 c-83 0 -94 11 -49 55 25 26 54 31 85 15z"/>
<path d="M2699 375 c-77 -42 -45 -175 42 -175 91 0 133 97 70 161 -33 32 -70
37 -112 14z m79 -1 c26 -7 52 -51 52 -89 0 -37 -42 -75 -83 -75 -73 0 -106 91
-52 145 25 26 42 29 83 19z"/>
<path d="M2893 250 c1 -80 3 -113 4 -73 l4 71 24 -24 c55 -55 135 -13 135 71
0 51 -21 80 -67 91 -30 8 -73 -12 -81 -36 -3 -10 4 -7 20 8 32 29 63 28 93 -3
63 -62 1 -170 -80 -139 -22 9 -48 62 -41 88 2 11 1 37 -4 56 -5 23 -8 -13 -7
-110z"/>
<path d="M3209 361 c-59 -59 -23 -160 56 -161 33 0 75 24 75 42 0 6 -10 2 -23
-10 -33 -31 -80 -29 -106 4 -37 47 -29 54 60 54 l81 0 -6 28 c-9 35 -50 72
-82 72 -15 0 -38 -12 -55 -29z m98 4 c11 -8 23 -26 25 -40 5 -25 5 -25 -68
-25 -83 0 -93 11 -49 55 27 28 61 32 92 10z"/>
<path d="M3914 375 c-18 -14 -17 -14 11 -5 42 16 72 5 79 -27 8 -40 0 -101
-16 -121 -12 -15 -11 -16 4 -4 14 11 17 10 21 -5 3 -10 5 17 6 60 1 65 -2 80
-19 97 -24 24 -59 26 -86 5z"/>
<path d="M4109 375 c-55 -30 -62 -116 -12 -155 31 -24 82 -26 109 -4 18 15 18
15 -3 5 -76 -37 -153 26 -124 101 15 39 54 62 94 54 23 -4 28 -3 17 4 -21 14
-50 12 -81 -5z"/>
<path d="M4289 361 c-59 -59 -23 -160 56 -161 31 0 75 24 75 41 0 5 -9 0 -20
-11 -40 -40 -107 -20 -124 38 -7 22 -6 22 73 22 75 0 81 1 81 21 0 30 -53 79
-85 79 -16 0 -38 -12 -56 -29z m99 2 c11 -10 23 -28 27 -40 6 -22 4 -23 -69
-23 -78 0 -85 4 -65 41 20 38 75 49 107 22z"/>
<path d="M4530 379 c14 -5 31 -17 38 -26 6 -9 12 -12 12 -5 0 14 -40 42 -60
41 -8 0 -4 -5 10 -10z"/>
<path d="M4900 374 c-16 -10 -18 -13 -5 -8 74 26 94 12 93 -67 0 -58 -20 -89
-58 -89 -26 0 -60 22 -60 38 0 25 34 52 68 53 25 1 30 3 13 6 -64 12 -108 -34
-77 -82 19 -30 75 -35 97 -9 12 14 14 14 20 -3 4 -10 8 18 8 63 1 66 -2 84
-17 97 -23 21 -49 21 -82 1z"/>
<path d="M5097 370 c-24 -19 -26 -19 -30 -3 -3 10 -5 -25 -4 -77 l0 -95 7 74
c5 60 11 77 29 92 27 22 41 24 64 7 12 -10 17 -33 20 -93 l3 -80 2 82 c2 63
-2 85 -14 97 -21 21 -46 20 -77 -4z"/>
<path d="M5295 378 c-33 -18 -45 -40 -45 -85 0 -56 33 -94 82 -92 33 1 33 1
-6 9 -48 9 -66 32 -66 82 0 28 7 46 25 63 30 31 62 32 92 3 13 -12 23 -16 23
-10 0 16 -41 42 -65 42 -11 0 -29 -6 -40 -12z"/>
<path d="M5834 380 c-59 -24 -72 -104 -25 -151 54 -54 141 -28 155 45 15 78
-56 136 -130 106z m89 -20 c61 -48 31 -149 -45 -150 -40 0 -57 9 -73 41 -22
42 -18 67 14 100 34 34 68 37 104 9z"/>
<path d="M6026 374 c-30 -30 -19 -52 42 -83 23 -12 42 -28 42 -35 0 -53 -54
-64 -90 -18 -12 15 -18 20 -14 12 15 -32 38 -50 64 -50 57 0 70 60 18 88 -53
29 -70 50 -58 72 14 26 44 25 70 -2 11 -12 20 -17 20 -10 0 14 -40 42 -62 42
-9 0 -24 -7 -32 -16z"/>
<path d="M6196 377 c-30 -22 -17 -59 32 -85 36 -20 43 -28 40 -51 -3 -22 -8
-26 -38 -26 -27 0 -37 6 -47 25 -8 16 -13 19 -13 9 0 -44 73 -65 104 -30 27
29 12 59 -40 81 -35 16 -44 24 -44 44 0 35 42 46 73 20 l22 -19 -19 23 c-22
25 -44 28 -70 9z"/>
<path d="M6354 295 c0 -55 1 -76 3 -47 2 29 2 74 0 100 -2 26 -3 2 -3 -53z"/>
<path d="M6472 374 c-12 -8 -22 -20 -22 -26 0 -6 10 -2 23 10 70 66 157 -44
96 -122 -24 -31 -72 -35 -103 -9 -21 18 -21 18 -2 -4 27 -32 79 -31 111 2 73
72 -20 207 -103 149z"/>
<path d="M6824 295 c0 -55 1 -76 3 -47 2 29 2 74 0 100 -2 26 -3 2 -3 -53z"/>
<path d="M6994 295 c0 -55 1 -76 3 -47 2 29 2 74 0 100 -2 26 -3 2 -3 -53z"/>
<path d="M7105 378 c-33 -19 -44 -41 -45 -86 0 -53 33 -92 80 -92 33 0 80 25
80 43 0 6 -10 1 -23 -11 -44 -41 -127 -15 -127 40 0 16 9 18 78 18 l79 0 -5
30 c-8 55 -70 85 -117 58z m85 -18 c11 -11 20 -29 20 -40 0 -18 -7 -20 -70
-20 -79 0 -89 12 -45 55 29 30 68 32 95 5z"/>
<path d="M7286 377 c-31 -23 -17 -59 31 -81 46 -21 62 -48 43 -71 -19 -23 -56
-18 -79 11 -24 31 -29 19 -5 -14 30 -43 109 -18 102 32 -2 12 -20 30 -46 45
-49 26 -60 44 -42 66 16 19 44 19 60 0 7 -8 18 -15 24 -15 18 1 -34 40 -53 40
-10 0 -25 -6 -35 -13z"/>
<path d="M1654 290 c0 -52 1 -74 3 -47 2 26 2 68 0 95 -2 26 -3 4 -3 -48z"/>
<path d="M2047 358 c28 -31 36 -60 23 -92 -6 -18 -6 -25 0 -21 15 9 12 -40 -4
-80 -25 -60 -106 -61 -131 -2 -9 19 -14 25 -15 14 0 -10 11 -29 25 -42 31 -32
75 -32 112 -1 27 24 28 27 30 138 1 69 -1 103 -6 88 -7 -21 -9 -22 -15 -8 -4
9 -15 19 -24 23 -13 5 -11 0 5 -17z"/>
<path d="M4479 364 c-18 -21 -3 -43 50 -73 35 -19 42 -28 39 -50 -2 -21 -9
-27 -33 -29 -23 -3 -35 3 -53 25 -13 15 -21 21 -17 13 17 -33 39 -50 65 -50
57 0 70 60 18 88 -53 29 -70 50 -58 72 13 24 7 26 -11 4z"/>
<path d="M6664 290 c0 -52 1 -74 3 -47 2 26 2 68 0 95 -2 26 -3 4 -3 -48z"/>
<path d="M3902 294 c-46 -32 -12 -100 45 -91 l28 4 -30 2 c-37 1 -55 17 -55
47 0 28 13 36 65 45 l40 6 -35 2 c-20 0 -46 -6 -58 -15z"/>
<path d="M3396 200 c-9 -22 -16 -46 -15 -53 0 -6 9 10 20 37 11 27 18 50 16
53 -3 2 -12 -14 -21 -37z"/>
<path d="M4660 194 c-21 -49 -26 -70 -9 -41 17 29 40 87 34 87 -3 0 -15 -21
-25 -46z"/>
</g>
</svg>
